<?xml version="1.0" encoding="UTF-8"?>
<svg xmlns="http://www.w3.org/2000/svg" width="110" height="32" viewBox="0 0 110 32" fill="none">
  <g clip-path="url(#clip0_953_914)">
    <path d="M110.358 11.2552C110.518 11.8262 109.928 12.5137 109.775 13.1352C110.006 13.6596 109.834 13.9315 109.447 14.5608C108.427 16.2272 108.001 18.3948 106.594 20.2787C106.649 19.125 107.317 17.917 108.052 16.8876C106.805 17.7694 106.145 19.4125 106.364 20.5856C106.544 20.64 106.411 20.3719 106.594 20.2748C106.739 20.3214 106.59 20.6672 106.805 20.4224C106.891 20.5351 106.618 20.7759 106.54 20.7837C106.379 21.4324 106.755 21.9063 106.989 22.4579C107.028 22.5395 106.872 22.6249 106.887 22.7026C106.989 23.1105 107.614 23.5339 108.204 23.965C108.486 23.8835 108.806 24.0622 109.115 24.1437C108.24 24.5827 107.372 25.0643 106.34 24.5283C106.137 24.4545 106.391 24.3069 106.336 24.2098C105.434 23.6621 105.41 22.9784 104.883 22.3724C105.066 22.1976 104.769 21.984 105.043 21.9335C104.848 21.0944 104.941 20.2049 104.863 19.3464C105.363 18.6239 105.383 17.983 105.653 17.2955C105.707 17.1129 105.457 17.2722 105.481 17.0935C106.18 15.3921 106.551 13.815 107.227 12.0049C106.801 12.0049 106.547 12.2651 106.168 12.3545C106.11 12.3661 105.918 12.2302 105.828 12.269C105.148 12.5487 104.777 13.5431 104.074 13.78C104.218 13.3178 104.785 13.007 105.078 12.5215C104.445 12.6225 103.953 13.6208 103.363 13.9782C103.718 13.0537 104.637 12.3428 105.324 11.43C105.152 11.3212 105.023 11.4921 104.883 11.5892C104.973 11.092 105.508 10.8589 105.774 10.4899C104.574 11.0454 103.816 12.5137 102.605 13.916C102.8 13.8966 102.941 13.5004 103.116 13.3333C103.347 14.118 101.831 14.9298 101.827 15.7339C102.147 15.6018 102.167 14.9104 102.593 15.0192C102.327 15.3338 102.21 15.4387 102.112 15.7805C101.377 15.9048 101.518 16.9731 101.084 17.5013C101.143 17.6451 101.061 17.8121 101.159 17.948C99.9785 19.9369 99.193 22.1044 97.4814 24.0194C97.3837 23.9301 97.5713 23.7941 97.4775 23.7009C97.118 23.4873 96.8992 24.1515 96.5748 24.1631C96.3521 24.0155 96.5006 23.8097 96.4928 23.6271C95.426 23.697 95.1133 22.4773 95 21.8403C95.2227 21.5722 95.3243 21.1799 95.3478 20.8225C97.8878 17.68 99.0602 14.6035 100.6 11.5232C100.397 11.6203 100.154 11.4533 99.9512 11.531C100.365 11.1076 100.729 11.0415 101.014 10.6298C101.518 9.91503 101.385 8.67978 102.315 8C102.722 8.24084 103.109 8.34183 103.652 8.80408C103.703 9.20806 103.691 9.61981 103.617 10.0432C103.734 10.0937 103.882 10.3423 103.953 10.1287C104.011 10.2452 103.949 10.3734 103.828 10.5171C103.984 10.521 104.093 10.2219 104.238 10.1792C104.457 10.2374 104.156 10.3773 104.375 10.4317C104.555 10.3967 104.726 10.3074 104.887 10.1714C105.063 10.3889 105.18 10.253 105.328 10.3307C105.785 9.79461 106.489 9.33625 107.259 9.34013C107.431 9.14979 107.368 8.93615 107.618 8.96334C107.833 9.03714 107.735 9.16145 107.622 9.28186C107.896 9.32071 107.95 9.14979 107.982 8.90507C108.427 9.39063 108.798 9.16145 109.076 9.37898C109.263 9.43336 109.103 9.18864 109.283 9.20806C109.416 9.51105 109.56 9.81015 110.021 10.0549C109.771 10.3384 110.08 10.5365 109.771 10.8279C109.877 10.9017 109.979 10.9755 110.084 11.0532C110.002 11.2513 109.967 11.4377 109.99 11.6203C110.147 11.6786 110.236 11.3562 110.358 11.2552Z" fill="white"></path>
    <path d="M109.208 16C109.267 16.1165 109.204 16.2447 109.083 16.3884C108.856 16.2991 109.161 16.1321 109.208 16Z" fill="white"></path>
    <path d="M107.73 17C106.999 18.0255 106.327 19.2374 106.272 20.3911C106.088 20.4882 106.221 20.7563 106.041 20.7019C105.823 19.5249 106.483 17.8818 107.73 17Z" fill="white"></path>
    <path d="M94.5631 15.7184C94.692 15.4232 95.2665 15.058 94.9812 14.8288C94.8796 15.1202 94.5514 15.4465 94.5631 15.7184ZM96.2004 14.0442C96.5013 13.749 96.7749 13.0692 96.728 12.6769C96.5443 13.1352 96.2317 13.6091 96.2004 14.0442ZM97.9746 10.8784C98.041 11.5659 96.8648 12.3778 96.9429 13.1508C97.1383 13.3061 97.236 12.8672 97.404 12.8478C97.025 13.3877 96.814 14.2773 96.2512 14.6307C95.7198 15.967 94.9656 17.2838 93.7659 18.5501C93.6643 18.7172 93.8558 18.8415 93.8362 18.9968C93.5588 19.5717 93.1719 19.4785 92.8749 19.9718C92.6678 19.797 93.0703 19.7776 92.9609 19.6339C92.4568 20.0651 92.0152 20.8847 91.5345 21.4635C91.9253 21.3819 92.2223 20.7099 92.6444 20.8303C92.3161 21.5916 91.1594 22.1976 90.5068 22.858C90.4599 23.126 90.3349 23.3824 90.0652 23.5688C89.9206 23.4057 90.0144 23.2076 90.159 23.0017C89.6979 23.4057 89.1899 23.5106 88.717 23.8679C88.6193 23.7786 88.8108 23.6426 88.7131 23.5494C87.7831 24.0311 86.7123 23.4484 85.7745 23.1804C84.6061 21.1877 84.6569 18.5307 86.6381 16.3515C87.0133 14.9065 88.0215 13.4188 89.1977 12.0126C90.4208 10.5482 91.2688 8.51663 92.8749 8C93.7815 8.66812 94.4888 9.36732 94.4771 10.1792C92.957 11.2746 91.7182 12.6069 90.3583 14.3511C90.6709 14.5453 91.2454 13.8966 91.5893 13.3333C91.6713 14.0442 90.034 14.6502 90.2176 15.5164C89.7213 15.9553 89.5377 16.27 89.1352 16.8759C89.2915 16.9886 89.3423 16.437 89.522 16.6778C88.9632 17.8276 88.1778 18.4608 87.615 19.5873C87.8651 19.5018 88.0527 19.0318 88.2794 18.7987C88.2403 19.4319 87.6815 20.1428 87.5291 20.7953C88.0605 20.5157 88.5373 20.3137 89.0766 20.0068C89.8268 19.5756 90.327 18.8259 91.0773 18.2743C91.6205 17.8704 92.4724 17.7072 92.8085 16.907C92.9726 16.7555 93.1563 16.7711 93.3204 16.6429C94.7624 15.0075 96.0441 13.2168 96.7084 11.3911C97.0367 11.3095 97.0992 11.0726 97.5291 10.7113C97.3571 10.5249 97.2829 10.9172 97.1109 10.7308C97.1852 10.3967 97.5603 10.2607 97.7909 10.0277C98.1465 10.1947 97.3493 10.9172 97.4314 11.2785C97.6502 11.3833 97.7714 10.8745 97.9746 10.8784Z" fill="white"></path>
    <path d="M96.4095 16C96.4564 16.2874 96.261 16.5361 96.0031 16.6604C95.964 16.4661 96.304 16.2136 96.4095 16Z" fill="white"></path>
    <path d="M93.4073 20C93.4698 20.3185 93.1181 20.3807 93.0517 20.6953C92.8446 20.5127 93.3213 20.2253 93.4073 20Z" fill="white"></path>
    <path d="M93.2071 21.0095C93.4299 21.0872 93.1133 21.429 93 21.1804C93.0664 21.0988 93.1211 20.9629 93.2071 21.0095Z" fill="white"></path>
    <path d="M87.0533 4C88.0381 4.01942 88.9603 5.17698 89.0268 5.89561C88.3742 6.30736 87.6747 6.49769 87.4676 7.4688C86.9009 6.38116 86.9752 5.19252 87.0533 4Z" fill="white"></path>
    <path d="M79.0051 21.4181C79.5014 20.6101 80.3767 19.8371 80.4744 18.9864C79.8882 19.7283 79.1966 20.5402 79.0051 21.4181ZM83.3896 12.2081C83.671 12.6237 83.4209 13.1209 83.6045 13.5521C83.5107 13.7696 83.4052 14.1697 83.159 14.2629C83.331 14.461 83.4248 14.1814 83.6045 14.4222C83.3466 14.8922 82.9363 15.3816 83.077 15.7895C81.424 18.0386 79.4701 20.9403 78.544 23.4613C78.2626 23.3564 77.9773 23.2204 77.7663 23.5351C77.4381 23.403 77.7898 23.1661 77.5006 23.0262C77.2153 22.8903 77.0043 23.1971 76.7503 23.2787C76.4103 22.797 76.2814 22.2843 76 21.791C76.5354 20.1673 77.5397 18.4659 78.2274 16.815C78.6456 16.0808 79.177 15.471 79.5365 14.8223C79.6381 14.6319 79.6225 14.4183 79.7241 14.2435C80.1462 13.5093 80.7284 12.9111 81.0176 12.1653C81.1895 11.7147 81.0762 11.1282 81.7132 11C82.4127 11.3108 82.8191 11.6798 83.3896 12.2081Z" fill="white"></path>
    <path d="M58.5209 16.5361C58.6342 16.369 59.0016 16.2874 58.9547 16.0583C58.8179 16.0932 58.474 16.3108 58.5209 16.5361ZM64.5193 10.4686C63.8746 10.7016 63.1907 10.6667 62.6397 11.4941C62.2294 11.6261 61.8464 12.0418 61.7331 12.5079C60.4318 13.4168 59.916 14.7026 58.9781 15.9145C59.0954 15.8563 59.1852 15.6698 59.3142 15.6776C59.1462 16.5555 58.0676 17.3013 57.8957 18.1481C57.8527 18.2025 57.8253 18.2957 57.9113 18.2374C58.0129 17.9849 58.0559 17.95 58.2825 17.9539C58.3021 18.3501 57.7159 18.8356 57.8331 19.2163C60.4631 17.0954 62.9523 13.514 64.5193 10.4686ZM65.934 17.5887C66.0082 17.4372 65.8793 17.3207 65.8245 17.1925C65.637 17.3168 65.9652 17.3557 65.7776 17.4761C65.8284 17.511 65.8793 17.5499 65.934 17.5887ZM72.2489 12.9391C72.7452 12.1117 73.6635 11.7815 73.6753 11.1095C73.222 11.6689 72.5225 12.2243 72.2489 12.9391ZM83.0305 7.45812C82.7765 7.57465 82.8312 7.91648 82.5576 7.99029C82.3935 7.58631 82.6241 7.12406 81.9949 6.79388C80.3029 6.79777 78.9469 8.89148 77.3134 9.76548C76.6022 10.1462 75.6057 10.1772 74.9258 11.3736C75.3712 11.2105 75.6292 10.4996 76.1841 10.5346C75.3283 11.8708 74.1637 13.2615 73.0188 14.2831C73.3314 13.4673 74.07 12.9158 74.5193 12.034C73.3509 13.1605 72.2177 14.4812 71.1235 16.0932C71.3931 15.9262 71.6393 15.6271 71.8933 15.3785C71.8699 16.066 71.0727 16.8818 70.8109 17.6082C71.0922 17.6198 71.2876 17.1109 71.526 16.8546C71.4908 17.0488 71.3658 17.5227 71.1626 17.4644C70.6038 18.622 70.7444 19.6708 70.3927 20.7934C70.4865 20.8128 70.5725 20.7546 70.6506 20.6613C70.7483 21.1624 70.0332 21.5431 69.9043 22.1063C69.787 23.0736 69.8105 24.4292 68.6381 24.9187C68.3294 24.8138 68.0403 24.8449 67.7862 25.0974C67.583 24.907 67.415 24.907 67.2626 25.0391C66.4967 24.6701 66.6725 24.1534 66.1294 23.7495C66.1606 23.3144 65.9848 22.9143 66.1098 22.4676C65.1837 22.2695 64.492 21.5781 64.0113 20.9604C64.0739 20.8633 64.1559 20.8983 64.2184 20.7895C63.7691 20.3234 63.8472 19.7796 63.4682 19.3018C63.5854 18.5521 63.4447 17.8373 63.3978 17.1148C63.4721 16.8973 63.2767 17.2469 63.2024 17.0527C63.1868 16.8857 63.1086 16.7303 63.347 16.5244C63.1633 16.6137 63.1282 16.4972 63.0852 16.3379C62.2997 17.2702 62.2763 18.0821 61.4244 19.026C61.3814 19.1076 61.569 19.158 61.5065 19.2435C60.4435 21.2479 58.8687 22.6579 57.2587 23.4775C57.0555 23.4542 57.5244 23.4076 57.5791 23.1551C57.2157 22.8793 56.4732 23.1474 56.3755 22.6074C56.1841 22.4598 56.0434 22.6579 55.8558 22.5492C55.5627 21.9238 55.0782 21.3256 55 20.6652C55.1055 19.6708 55.2149 18.6764 55.3595 17.6742C56.4498 16.0311 56.8796 14.1937 58.1536 12.4729C58.5326 11.9563 58.9195 11.226 59.4002 10.6744C60.2794 9.6606 61.358 8.35931 62.5537 8.02913C63.3157 8.58461 64.1676 9.12454 64.6796 9.71498C64.789 9.86647 64.7812 10.0335 64.7147 10.2122C64.9336 10.2277 65.0625 9.69167 65.3322 10.0257C65.3791 9.89366 65.68 9.72663 65.4572 9.63729C65.551 9.45472 65.7347 9.80432 65.8206 9.58291C66.0317 9.92474 66.2544 9.81597 66.5006 10.0723C67.0946 10.6822 66.6843 11.3892 66.9187 12.1156C66.7038 12.3797 66.6061 12.6244 66.6178 12.8536C66.8406 12.9429 66.7233 12.4807 66.8992 12.5778C67.1649 13.0556 66.5827 13.6655 66.8679 14.1432C66.7429 14.318 66.7663 14.4656 66.5748 14.6482C66.5397 14.7298 66.6764 14.7842 66.7468 14.8502C66.2466 15.5844 66.4029 16.2175 65.9183 16.9517C66.2544 17.0527 66.1411 16.5089 66.3794 16.3302C66.2974 17.6548 65.5432 19.0881 65.8128 20.3583C66.145 20.5992 66.4732 20.8361 66.8093 21.0731C67.1766 21.007 67.3642 20.3273 67.4306 20.0165C68.7046 16.839 71.1704 13.6965 72.5459 10.4608C71.6901 10.7055 70.8656 11.1716 69.8496 10.4219C69.8027 10.0335 69.2048 9.72663 69.2126 9.32654C71.0219 8.36708 72.8273 7.33382 74.7304 6.95703C75.9574 4.66133 77.2196 2.22578 78.4975 0C80.3068 1.15756 78.3138 2.90168 78.5326 4.30396C78.0363 4.80893 78.1966 5.21292 78.1888 5.6402C78.3412 5.71789 78.4584 5.57805 78.6303 5.79947C78.8101 5.63244 79.025 5.7917 79.279 5.78781C79.3533 5.78781 79.451 5.65574 79.5369 5.65574C79.6112 5.65963 79.6776 5.80335 79.7479 5.80723C80.3849 5.81889 81.4205 5.6907 82.0614 6.0403C82.6514 6.37048 83.007 6.93761 83.0305 7.45812Z" fill="white"></path>
    <path d="M74.0473 15C73.7268 15.5244 73.5276 16.0294 73.043 16.5771C73.0274 16.4877 73.0117 16.3984 73 16.3091C73.3283 15.9284 73.8206 15.0583 74.0473 15Z" fill="white"></path>
    <path d="M51.7409 11.9377C52.0809 11.3472 52.71 11.0171 52.9015 10.4732C52.5224 10.648 51.7995 11.6813 51.7409 11.9377ZM53.4408 10.0693C53.5736 9.85173 53.7964 9.84396 53.6909 9.61867C53.6322 9.76239 53.3509 9.94496 53.4408 10.0693ZM54.5545 8.3368C54.3396 8.15423 54.2223 8.58152 54.0387 8.60094C54.2497 8.74078 54.3825 8.41449 54.5545 8.3368ZM60.3145 6.29359C60.295 6.52665 60.1778 6.86071 59.9628 6.9889C58.8257 6.48004 57.9464 7.5638 56.9656 8.00662C56.8913 8.13869 56.907 8.25911 56.7507 8.40672C56.5553 8.51937 56.8327 8.18531 56.8874 8.1115C56.7663 7.92505 56.7233 8.25134 56.6022 8.06489C55.719 8.93889 54.7421 9.20691 53.8823 10.2285C54.7929 9.7352 55.6643 8.99716 56.5514 8.34845C56.3872 8.99716 55.4298 9.35841 54.9257 9.79347C53.8081 11.4832 51.9636 13.169 50.7053 15.0802C50.7366 14.8393 50.7131 14.6801 50.4161 14.7112C50.4982 14.5014 50.6584 14.2761 50.6389 14.0819C50.3888 14.5946 49.3571 15.624 49.8104 16.1834C49.9472 16.1445 50.0879 15.7133 50.3067 15.5075C50.2481 16.0319 49.4705 16.7738 49.1813 17.473C49.4666 17.5041 49.533 17.104 49.6932 16.8903C49.5291 17.9119 48.9273 18.9957 48.4779 20.06C48.3372 20.1727 48.7553 20.1999 48.6147 20.3125C48.3372 21.1788 47.9542 22.0644 47.5478 22.9539C47.1141 22.7636 47.2782 22.4762 47.2 22.2276C46.8991 22.4684 46.6334 22.9501 46.2739 22.8296C46.2348 22.7131 46.2544 22.5849 46.2153 22.4684C46.059 22.2509 45.9847 22.5616 45.8245 22.3441C45.5432 22.0372 45.465 21.6993 45.1641 21.3924C45.4142 20.8563 44.8515 20.5184 45.039 20.0367C45.0938 19.8969 45.2813 19.7804 45.3439 19.6211C45.5158 19.1977 45.6252 18.7277 45.8323 18.3082C46.9109 16.1173 47.3095 13.6041 48.3528 11.4055C48.4193 10.9821 48.2981 10.5898 48.1145 10.2052C48.3919 9.90223 48.7671 10.2324 49.0445 9.92165C49.4079 10.314 50.0058 10.1858 50.0918 10.6752C50.4279 10.5432 50.7444 10.2946 51.0414 9.92942C52.9836 9.3118 54.7499 7.55991 56.6803 6.85295C56.7975 6.71311 56.5787 6.62765 56.8054 6.46839C57.2821 6.2159 58.2395 5.92457 58.8218 6.01779C59.3962 6.11102 59.8261 5.83911 60.3145 6.29359Z" fill="white"></path>
    <path d="M58.5842 8C58.256 8.77689 57.1696 8.92061 56.5717 9.64312C56.388 9.86453 56.1262 10.319 55.7784 10.5016C55.7159 10.5327 55.5283 10.455 55.4541 10.5055C55.2235 10.657 54.9343 11.0571 54.61 11.3251C54.227 11.6397 53.7464 11.764 53.7659 12.1447C53.4689 12.133 53.2579 12.6458 53 12.8594C53.973 10.723 55.9504 9.8723 57.4353 8.36125C57.7284 8.57878 58.2012 8.1243 58.5842 8Z" fill="white"></path>
    <path d="M55.6487 11C55.3361 11.3302 55.3634 11.738 55 11.8818C55.129 11.6021 55.1954 11.0194 55.6487 11Z" fill="white"></path>
    <path d="M53.3413 12C53.3452 12.1826 53.2319 12.3846 53.0638 12.5943C52.8802 12.2991 53.1303 12.167 53.3413 12Z" fill="white"></path>
    <path d="M53.3844 13C53.4156 13.202 53.2789 13.637 53.0014 13.5166C52.978 13.2913 53.2554 13.1593 53.3844 13Z" fill="white"></path>
    <path d="M52.1876 14.0082C52.4142 14.0975 52.1172 14.2995 52.0508 14.3073C51.9258 14.2568 52.0547 13.946 52.1876 14.0082Z" fill="white"></path>
    <path d="M47.0195 10.5754C47.1602 10.6919 47.2501 10.4744 47.4103 10.6997C46.6053 12.2224 45.6518 15.3455 43.7253 16.134C43.6002 16.2739 43.7253 16.3787 43.6002 16.5225C43.1235 16.8332 42.6506 17.1479 42.1895 17.5674C40.8765 17.5324 40.6499 19.6378 39.8175 20.4574C39.6065 19.8165 40.0676 19.0706 40.2278 18.3753C39.0828 19.5018 39.1844 20.8303 39.3955 21.8985C40.2122 22.2365 41.2673 21.6577 42.1856 21.0517C43.018 20.504 43.8738 19.696 44.7218 18.9153C44.8429 19.0823 44.7218 19.2843 44.8976 19.4397C43.7175 20.671 43.4986 22.3375 42.4396 23.5378C42.4005 23.6193 42.5373 23.6737 42.6116 23.7397C42.1192 24.0427 41.6581 24.5516 41.0914 24.3884C40.8218 24.6254 40.56 24.9478 40.2122 24.707C40.349 24.5749 40.6381 24.5438 40.6225 24.369C40.0871 24.5127 39.329 24.4118 38.6491 24.2175C38.2778 24.1088 38.3286 23.8135 38.0668 23.4795C37.6878 23.0056 37.1368 22.7609 37.4494 22.2481C37.1016 22.116 37.2735 21.9102 37 21.7664C37.1876 21.5683 37.2306 21.3935 37.2423 21.2265C36.9297 20.4185 37.4064 19.4902 37.3869 18.6395C38.0317 17.346 38.7937 15.8427 39.3173 14.7162C39.7667 14.4365 39.6846 14.1219 40.1184 13.6286C40.22 13.4887 40.0715 13.3916 40.0598 13.2712C40.8882 12.2768 41.4041 11.1697 42.2364 10.319C42.6194 9.3479 43.8816 9.05268 44.5928 8.20976C44.964 8.30687 45.2767 8.03884 45.6284 8C45.8277 8.08934 45.6323 8.16703 45.5658 8.19422C45.7339 8.20588 45.8003 8.47779 46.1559 8.69531C47.1759 8.86623 47.129 9.93057 47.0195 10.5754Z" fill="white"></path>
    <path d="M41.2702 20C41.4265 20.1165 41.1413 20.4273 41.0162 20.4506C40.9302 20.3302 41.2116 20.1476 41.2702 20Z" fill="white"></path>
    <path d="M38.447 14C38.5525 14.2253 38.1774 14.5322 38.0171 14.8002C37.9194 14.5632 38.2633 14.1398 38.447 14Z" fill="white"></path>
    <path d="M3.22392 14.2697C3.29035 13.9706 3.78664 13.6016 3.67722 13.3296C3.43884 13.6559 3.11841 13.9978 3.22392 14.2697ZM7.05354 24.311C8.26104 22.7727 9.71864 21.518 10.4377 19.6147C9.33177 21.0869 7.69832 22.7028 7.05354 24.311ZM10.1641 20.5275C10.4377 20.7839 10.7034 20.0769 10.5862 19.9604C10.3517 20.2284 10.3751 20.3605 10.1641 20.5275ZM10.891 20.4149C11.1333 19.8322 11.442 19.7351 11.6764 19.2379C11.2778 19.3583 10.891 20.0692 10.891 20.4149ZM24.6385 11.1272C23.9117 10.9524 22.9777 11.974 22.161 12.1993C20.4025 13.7647 19.0778 15.1709 17.7296 17.3384C20.1368 15.9128 22.6026 13.9279 24.6385 11.1272ZM12.161 19.37C12.204 19.3078 12.2392 19.2495 12.2743 19.1913C12.2235 19.2495 12.1884 19.3117 12.161 19.37ZM12.161 19.37C11.6608 20.1391 10.7972 21.1102 10.5197 21.891C9.87886 22.2289 9.3474 23.2583 8.6909 23.5069C7.64361 24.9014 6.45565 25.4219 5.28722 26.0512C4.34545 25.8842 3.53654 26.5445 2.59086 26.3309C2.31731 26.2066 2.50488 26.0085 2.55959 25.8337C1.87183 25.6666 1.32083 25.3714 0.933959 24.6644C0.656507 24.1595 0.586167 23.1029 0.343884 22.4192C0.234467 22.1162 0.113326 21.7239 0.0664322 21.2733C0 20.5547 0.132864 20.0575 0 19.401C0.816725 15.7186 2.61821 10.9019 6.23681 7.24274C7.74912 5.72004 9.45682 3.90989 11.2388 3.07473C11.7077 3.05531 12.2978 2.86497 12.9269 3.17961C13.6147 3.52533 14.2165 4.12353 14.5565 4.66735C14.1383 4.97034 13.6694 4.91984 13.2122 4.97034C12.7862 5.22283 12.3759 5.54524 11.9226 5.63069C9.3943 7.53795 6.89723 9.62778 4.59164 12.9567C4.6229 13.7336 4.13834 14.2075 3.75147 14.9689C3.45838 15.5438 3.33333 16.2779 3.09105 16.9499C2.63384 18.224 2.24697 19.4826 2.14537 20.6285C2.28214 20.7023 2.3603 20.4071 2.50879 20.5741C2.03204 20.9859 2.50879 21.2461 2.03204 21.6579C2.18445 22.3959 2.30559 23.1456 2.29777 23.9109C3.44666 24.1633 4.43142 22.831 5.77179 21.8094C6.0297 21.6152 6.39703 21.3937 6.85033 21.0014C8.60102 19.4981 11.0512 16.6625 11.9734 14.3823C10.5119 14.4445 9.24971 15.7497 7.84682 16.1692C7.55373 15.8856 7.30754 15.8778 7.06526 15.9245C6.31497 15.4272 6.78781 14.7436 6.23681 14.2192C9.17546 11.6671 12.3447 10.5911 15.4513 9.11892C16.8621 8.94412 18.261 8.67609 19.7577 9.04511C20.0313 9.28595 20.2775 9.37529 20.5158 9.42967C20.8714 9.89581 21.3521 10.3386 21.0277 10.9096C22.5713 10.0939 24.0055 8.59452 25.6663 8.53625C26.4166 9.04511 27.159 9.55786 27.2724 10.1677C26.8542 11.0029 26.5768 11.6826 25.8578 12.6343C25.8812 12.7548 25.6585 12.9101 25.9164 12.9956C25.6311 13.5705 25.1348 14.4484 24.5018 14.9106C24.4666 15.1281 24.7128 14.7125 24.8261 14.9067C24.5369 15.2291 24.2946 15.839 23.9429 15.7768C23.9078 15.6137 24.0289 15.4272 24.1852 15.2369C23.5795 16.0177 22.6925 16.4217 22.3408 17.082C22.2939 17.0004 22.3251 16.9033 22.3877 16.8023C20.7659 18.3755 19.0543 19.3894 17.2958 20.1158C17.3193 20.846 17.2606 21.588 17.2763 22.3182C19.1051 22.1357 20.7659 20.8965 22.4853 20.042C23.1223 19.4049 23.8882 19.1252 24.5291 18.5775C25.3576 17.8667 25.9242 17.2335 26.8191 16.344C27.2216 15.94 27.6553 15.6914 27.8703 15.3534C28.3744 14.5649 28.4799 13.6288 29.0543 12.8752C29.4256 11.5817 30.5744 10.1638 30.426 8.948C30.9379 8.76932 31.5592 9.25099 32.1766 9.72878C32.0907 9.91134 32.2196 10.059 32.2118 10.226C32.6299 10.0318 33.0363 9.77927 33.4467 9.53067C33.4896 9.61613 33.4623 9.71324 33.3998 9.81423C34.8808 9.05288 36.7565 8.16723 38.3587 10.0512C38.2415 10.2104 38.4564 10.3114 38.2884 10.4746C39.9492 11.3564 39.5389 13.0189 38.3001 14.0483C37.9523 14.9223 37.0418 15.9711 36.6315 16.9694C35.9515 18.2007 34.6112 18.9776 34.4822 20.1002C35.6311 19.2262 36.1352 17.7657 37.0809 16.5809C36.8855 17.5559 36.0336 18.6397 35.4357 19.6807C35.2716 19.7118 35.1348 19.9254 34.959 19.8905C34.9199 20.5003 34.4666 20.613 34.4705 21.2034C34.5877 21.2656 34.662 21.048 34.7831 21.1102C34.8847 20.5858 35.4084 20.0575 35.5412 19.7545C35.8187 20.0925 35.5256 20.2944 35.2833 20.7567C35.6428 20.7761 35.9007 20.1818 36.2446 20.1002C35.7132 21.2966 35.1544 22.5785 34.0563 23.2855C33.646 23.0291 33.2982 23.1689 32.9387 23.2738C31.9226 22.6678 32.2587 21.8521 32.0399 21.1218C32.3447 20.1274 33.0598 19.3428 33.4037 18.294C33.7007 17.3772 33.8961 16.445 34.3103 15.5399C34.451 15.2291 34.5721 14.9223 34.5291 14.5882C35.0449 13.7569 35.4357 12.5955 35.8226 11.636C34.83 11.333 34.1227 12.8208 33.2513 13.2714C32.7042 14.2036 31.6413 14.7358 31.0277 15.6331C30.4142 16.5304 30.2345 17.587 29.578 18.4726C29.4334 18.663 29.6366 18.7989 29.6092 18.9699C29.0934 19.1874 28.941 19.6535 28.6401 20.1779C28.8589 20.1818 28.9801 19.5875 29.2302 19.8089C28.7691 20.7761 27.9836 22.0114 27.6475 23.266C27.1942 23.7166 26.5924 23.2389 26.0336 23.0563C25.4201 22.6484 25.4357 22.1396 24.8456 21.7278C24.9472 21.2228 24.9785 20.7295 24.8925 20.2556C25.6233 19.2262 26.1235 18.2318 26.7292 17.218C25.678 18.0492 24.7245 19.502 23.6538 20.1935C23.7593 20.0653 23.8101 19.941 23.7554 19.8361C23.7085 19.9604 23.4193 20.1274 23.6186 20.2168C23.5365 20.2673 23.4584 20.3139 23.3724 20.3566C23.2356 20.5469 23.095 20.7373 22.9543 20.9237C22.8644 20.9742 23.0871 21.1451 23.1497 21.0985C21.9187 22.8504 20.2227 24.6761 18.4095 25.0218C18.3783 24.6528 17.714 24.5324 17.4678 24.6644C16.8113 24.1167 16.7175 24.5168 15.9515 23.8914C16.0023 23.8215 16.0531 23.7516 16.1039 23.6856C15.9125 23.5457 15.7171 23.4098 15.5256 23.2699C14.6503 21.8482 14.7558 20.2711 15.1622 18.6513C15.2677 18.4377 15.4201 18.5348 15.5334 18.3678C16.1587 15.8468 18.7104 13.6715 20.4768 11.2243C20.4533 10.7543 20.4494 10.2804 20.211 9.84531C18.7534 9.03346 17.7218 10.9291 16.4713 11.434C15.9047 12.343 15.1934 12.343 14.5995 13.1005C14.5135 13.0461 14.4197 12.9296 14.3494 13.0034C14.0563 13.5666 14.4588 14.025 13.7749 14.6504C13.6577 14.8446 14.0524 14.5688 13.9351 14.763C13.7554 15.2524 13.2044 15.7924 12.88 16.3012C13.2903 16.3323 13.1067 15.9555 13.4076 15.8079C13.4896 15.7652 13.1067 16.2546 13.0793 16.3634C13.052 16.4527 13.2044 16.4877 13.1614 16.5809C12.8566 17.2335 12.3759 17.9211 12.1844 18.3367C13.3099 17.7385 13.9429 15.4234 14.748 14.3163C14.6737 15.1825 14.2009 16.1109 13.7866 17.0315C13.2513 17.7424 12.6964 18.4532 12.7667 19.0709C12.4814 19.401 12.2235 19.9371 11.9109 20.1196C12.0789 19.8555 12.0399 19.6263 12.161 19.37ZM3.60297 12.8907C3.68503 12.8169 3.79054 12.8868 3.88042 12.8363C4.68542 11.605 5.61938 10.5523 6.24463 9.6239C5.26378 10.4901 4.4197 11.9662 3.60297 12.8907Z" fill="white"></path>
    <path d="M29.1992 19.0039C29.4258 19.0933 29.0898 19.3458 29.0194 19.3535C28.9608 19.2797 29.039 18.9612 29.1992 19.0039Z" fill="white"></path>
    <path d="M26.3641 12.0945C26.5126 11.9624 26.6846 11.9585 26.8839 12.1488C26.3524 12.3897 26.6181 13.0811 26.0202 13.4307C25.8757 13.0267 26.5595 12.4946 26.3641 12.0945Z" fill="white"></path>
    <path d="M24.2061 19C24.2608 19.1049 24.21 19.2292 24.1045 19.3574C24.0928 19.3651 24.081 19.369 24.0693 19.3807C23.87 19.2874 24.1592 19.1243 24.2061 19Z" fill="white"></path>
    <path d="M24.0352 20C24.0313 20.0078 24.0234 20.0194 24.0117 20.0272C24.0078 20.0233 24.0039 20.0233 24 20.0233C24.0117 20.0117 24.0234 20.0078 24.0352 20Z" fill="white"></path>
    <path d="M12 19.1787C12.0274 19.1243 12.0664 19.0622 12.1133 19C12.0782 19.0583 12.043 19.1165 12 19.1787Z" fill="white"></path>
    <path d="M71.1012 30.9835L70.3783 31.1855L69.1747 31.2244C69.1747 31.2244 67.3927 31.0806 68.9832 30.9408H70.0422L71.1012 30.9835ZM66.8339 30.8398L66.4471 31.0418L65.8023 31.0806C65.8023 31.0806 64.8449 30.9369 65.7007 30.7971H66.2712L66.8339 30.8398ZM108.51 29.3754C105.986 29.1306 103.735 29.0063 101.476 29.1384C100.511 29.1928 99.5381 29.1889 98.5651 29.1889C95.9977 29.1811 93.4303 29.1617 90.8628 29.1384C88.9168 29.119 86.9785 28.9947 85.0285 29.0374C82.0391 29.1035 79.0379 29.018 76.0406 29.0025C74.755 28.9986 73.4732 28.9947 72.1876 29.0296C70.4017 29.0763 68.6159 29.1539 66.83 29.2161C64.9269 29.286 63.0238 29.3521 61.1208 29.4181C59.4482 29.4764 57.7796 29.5696 56.1071 29.5812C53.4654 29.6007 50.8238 29.5502 48.1821 29.5502C45.263 29.5502 42.3478 29.5812 39.4287 29.5851C36.3533 29.589 33.2818 29.5812 30.2063 29.5735C29.5068 29.5696 28.8034 29.5074 28.104 29.5074C26.5487 29.5074 25.0012 29.6783 23.442 29.5735C23.0942 29.5502 22.7425 29.5774 22.3908 29.5812C20.601 29.6084 18.8152 29.6395 17.0254 29.655C16.5604 29.6589 16.0914 29.6007 15.6264 29.6045C13.7233 29.6278 11.8163 29.6706 9.91325 29.6978C9.21376 29.7094 8.51426 29.7055 7.81868 29.7172C7.50606 29.7211 7.19344 29.725 6.88863 29.7599C5.27862 29.9425 3.66081 30.0435 2 30.0318C2.03908 30.397 2.06643 30.7466 2.12114 31.0923C2.17585 31.4458 2.24619 31.7993 2.62915 32.145C3.07464 32.2304 3.6061 32.4208 4.13365 32.4208C4.98163 32.4169 5.82962 32.2926 6.6737 32.2032C7.44353 32.1255 8.20555 32.0207 8.97538 31.943C9.24502 31.9158 9.53029 31.9585 9.7882 31.9119C11.7694 31.5468 13.8054 31.6089 15.8101 31.4497C16.0406 31.4302 16.2751 31.4535 16.5096 31.4574C17.1309 31.4691 17.7522 31.5118 18.3697 31.4924C20.6206 31.4225 22.8675 31.2399 25.1262 31.4652C26.0133 31.5545 26.8925 31.7138 27.7913 31.605C27.9398 31.5856 28.1 31.6206 28.2564 31.6439C29.8781 31.8886 31.5076 31.9274 33.145 31.8614C33.7272 31.8381 34.3173 31.8148 34.8957 31.8731C36.0328 31.9857 37.1465 31.8692 38.2642 31.7837C39.882 31.6827 41.9414 31.4807 44.0555 31.2943C44.3603 31.271 44.6925 31.2399 44.9816 31.3098C45.6772 31.473 46.3689 31.4263 47.0684 31.4341C47.9242 31.4458 48.78 31.4691 49.628 31.5351C50.558 31.6089 51.4764 31.7721 52.4064 31.8381C55.3568 32.0556 58.315 32.2149 61.2732 32.0673C62.2423 32.0207 63.2075 31.9352 64.1766 31.8808C65.3763 31.8148 66.5838 31.6711 67.7796 31.7216C69.9328 31.8187 72.0469 31.5623 74.1805 31.4846C75.5756 31.4341 76.9668 31.3254 78.3619 31.2515C79.6788 31.1855 80.9996 31.135 82.3204 31.0729C83.016 31.0379 83.7155 30.9952 84.4111 30.9486C85.4545 30.8786 86.4979 30.801 87.5412 30.731C88.1977 30.6883 88.8542 30.6495 89.5147 30.6184C90.8316 30.5601 92.1524 30.5407 93.4654 30.4397C94.204 30.3814 94.9308 30.3465 95.6733 30.3853C96.3728 30.4203 97.084 30.4669 97.7679 30.3892C99.0027 30.2494 100.242 30.2105 101.484 30.1989C101.871 30.195 102.262 30.195 102.649 30.1678C103.77 30.094 104.724 29.8143 105.837 29.7094C106.51 29.6473 107.018 29.6783 107.713 29.5657C107.834 29.5579 108.182 29.5385 108.51 29.3754Z" fill="white"></path>
    <path d="M44.6587 31H45.7177L46.7767 31.0427L46.0538 31.2447L44.8502 31.2836C44.8502 31.2874 43.0721 31.1437 44.6587 31Z" fill="white"></path>
    <path d="M19.4795 30.6254L21.8867 30.2913L24.2978 30L22.6839 30.4312L19.9563 30.8507C19.9563 30.8468 15.8922 31.2663 19.4795 30.6254Z" fill="white"></path>
    <path d="M50.5081 31.0816L52.9349 31.0194L55.3655 31L53.7164 31.2447L50.9575 31.3535C50.9575 31.3535 46.87 31.3185 50.5081 31.0816Z" fill="white"></path>
    <path d="M29.3103 31.6914L27.1571 31.8041H25L26.442 31.2253L28.8804 31C28.8843 31 32.5186 31.167 29.3103 31.6914Z" fill="white"></path>
    <path d="M14.514 31H18.5508L22.5875 31.0738L19.8325 31.404L15.2448 31.4661C15.2487 31.47 8.45698 31.237 14.514 31Z" fill="white"></path>
    <path d="M41.353 31H41.9235L42.494 31.0427L42.1072 31.2447L41.4624 31.2836C41.4585 31.2836 40.5011 31.1437 41.353 31Z" fill="white"></path>
    <path d="M21.3555 31H21.926L22.4965 31.0427L22.1097 31.2447L21.4649 31.2836C21.4571 31.2874 20.4997 31.1437 21.3555 31Z" fill="white"></path>
  </g>
  <defs>
    <clipPath id="clip0_953_914">
      <rect width="110" height="32" fill="white"></rect>
    </clipPath>
  </defs>
</svg>
